<svg width="534" height="155" viewBox="0 0 534 155" fill="none" xmlns="http://www.w3.org/2000/svg">
<path d="M7.72727 150.182V54.1818H26.8182V65.9091H27.6818C28.5303 64.0303 29.7576 62.1212 31.3636 60.1818C33 58.2121 35.1212 56.5758 37.7273 55.2727C40.3636 53.9394 43.6364 53.2727 47.5455 53.2727C52.6364 53.2727 57.3333 54.6061 61.6364 57.2727C65.9394 59.9091 69.3788 63.8939 71.9545 69.2273C74.5303 74.5303 75.8182 81.1818 75.8182 89.1818C75.8182 96.9697 74.5606 103.545 72.0455 108.909C69.5606 114.242 66.1667 118.288 61.8636 121.045C57.5909 123.773 52.803 125.136 47.5 125.136C43.7424 125.136 40.5455 124.515 37.9091 123.273C35.303 122.03 33.1667 120.47 31.5 118.591C29.8333 116.682 28.5606 114.758 27.6818 112.818H27.0909V150.182H7.72727ZM26.6818 89.0909C26.6818 93.2424 27.2576 96.8636 28.4091 99.9545C29.5606 103.045 31.2273 105.455 33.4091 107.182C35.5909 108.879 38.2424 109.727 41.3636 109.727C44.5152 109.727 47.1818 108.864 49.3636 107.136C51.5455 105.379 53.197 102.955 54.3182 99.8636C55.4697 96.7424 56.0455 93.1515 56.0455 89.0909C56.0455 85.0606 55.4849 81.5151 54.3636 78.4545C53.2424 75.3939 51.5909 73 49.4091 71.2727C47.2273 69.5455 44.5455 68.6818 41.3636 68.6818C38.2121 68.6818 35.5455 69.5151 33.3636 71.1818C31.2121 72.8485 29.5606 75.2121 28.4091 78.2727C27.2576 81.3333 26.6818 84.9394 26.6818 89.0909ZM108.636 125.318C104.182 125.318 100.212 124.545 96.7273 123C93.2424 121.424 90.4848 119.106 88.4545 116.045C86.4545 112.955 85.4545 109.106 85.4545 104.5C85.4545 100.621 86.1667 97.3636 87.5909 94.7273C89.0152 92.0909 90.9545 89.9697 93.4091 88.3636C95.8636 86.7576 98.6515 85.5455 101.773 84.7273C104.924 83.9091 108.227 83.3333 111.682 83C115.742 82.5758 119.015 82.1818 121.5 81.8182C123.985 81.4242 125.788 80.8485 126.909 80.0909C128.03 79.3333 128.591 78.2121 128.591 76.7273V76.4545C128.591 73.5758 127.682 71.3485 125.864 69.7727C124.076 68.197 121.53 67.4091 118.227 67.4091C114.742 67.4091 111.97 68.1818 109.909 69.7273C107.848 71.2424 106.485 73.1515 105.818 75.4545L87.9091 74C88.8182 69.7576 90.6061 66.0909 93.2727 63C95.9394 59.8788 99.3788 57.4848 103.591 55.8182C107.833 54.1212 112.742 53.2727 118.318 53.2727C122.197 53.2727 125.909 53.7273 129.455 54.6364C133.03 55.5455 136.197 56.9545 138.955 58.8636C141.742 60.7727 143.939 63.2273 145.545 66.2273C147.152 69.197 147.955 72.7576 147.955 76.9091V124H129.591V114.318H129.045C127.924 116.5 126.424 118.424 124.545 120.091C122.667 121.727 120.409 123.015 117.773 123.955C115.136 124.864 112.091 125.318 108.636 125.318ZM114.182 111.955C117.03 111.955 119.545 111.394 121.727 110.273C123.909 109.121 125.621 107.576 126.864 105.636C128.106 103.697 128.727 101.5 128.727 99.0455V91.6364C128.121 92.0303 127.288 92.3939 126.227 92.7273C125.197 93.0303 124.03 93.3182 122.727 93.5909C121.424 93.8333 120.121 94.0606 118.818 94.2727C117.515 94.4545 116.333 94.6212 115.273 94.7727C113 95.1061 111.015 95.6364 109.318 96.3636C107.621 97.0909 106.303 98.0758 105.364 99.3182C104.424 100.53 103.955 102.045 103.955 103.864C103.955 106.5 104.909 108.515 106.818 109.909C108.758 111.273 111.212 111.955 114.182 111.955ZM182.341 30.9091V124H162.977V30.9091H182.341ZM217.761 125.318C213.307 125.318 209.337 124.545 205.852 123C202.367 121.424 199.61 119.106 197.58 116.045C195.58 112.955 194.58 109.106 194.58 104.5C194.58 100.621 195.292 97.3636 196.716 94.7273C198.14 92.0909 200.08 89.9697 202.534 88.3636C204.989 86.7576 207.777 85.5455 210.898 84.7273C214.049 83.9091 217.352 83.3333 220.807 83C224.867 82.5758 228.14 82.1818 230.625 81.8182C233.11 81.4242 234.913 80.8485 236.034 80.0909C237.155 79.3333 237.716 78.2121 237.716 76.7273V76.4545C237.716 73.5758 236.807 71.3485 234.989 69.7727C233.201 68.197 230.655 67.4091 227.352 67.4091C223.867 67.4091 221.095 68.1818 219.034 69.7273C216.973 71.2424 215.61 73.1515 214.943 75.4545L197.034 74C197.943 69.7576 199.731 66.0909 202.398 63C205.064 59.8788 208.504 57.4848 212.716 55.8182C216.958 54.1212 221.867 53.2727 227.443 53.2727C231.322 53.2727 235.034 53.7273 238.58 54.6364C242.155 55.5455 245.322 56.9545 248.08 58.8636C250.867 60.7727 253.064 63.2273 254.67 66.2273C256.277 69.197 257.08 72.7576 257.08 76.9091V124H238.716V114.318H238.17C237.049 116.5 235.549 118.424 233.67 120.091C231.792 121.727 229.534 123.015 226.898 123.955C224.261 124.864 221.216 125.318 217.761 125.318ZM223.307 111.955C226.155 111.955 228.67 111.394 230.852 110.273C233.034 109.121 234.746 107.576 235.989 105.636C237.231 103.697 237.852 101.5 237.852 99.0455V91.6364C237.246 92.0303 236.413 92.3939 235.352 92.7273C234.322 93.0303 233.155 93.3182 231.852 93.5909C230.549 93.8333 229.246 94.0606 227.943 94.2727C226.64 94.4545 225.458 94.6212 224.398 94.7727C222.125 95.1061 220.14 95.6364 218.443 96.3636C216.746 97.0909 215.428 98.0758 214.489 99.3182C213.549 100.53 213.08 102.045 213.08 103.864C213.08 106.5 214.034 108.515 215.943 109.909C217.883 111.273 220.337 111.955 223.307 111.955Z" fill="white"/>
<path d="M309.273 125.364C302.121 125.364 295.97 123.848 290.818 120.818C285.697 117.758 281.758 113.515 279 108.091C276.273 102.667 274.909 96.4242 274.909 89.3636C274.909 82.2121 276.288 75.9394 279.045 70.5455C281.833 65.1212 285.788 60.8939 290.909 57.8636C296.03 54.803 302.121 53.2727 309.182 53.2727C315.273 53.2727 320.606 54.3788 325.182 56.5909C329.758 58.803 333.379 61.9091 336.045 65.9091C338.712 69.9091 340.182 74.6061 340.455 80H322.182C321.667 76.5151 320.303 73.7121 318.091 71.5909C315.909 69.4394 313.045 68.3636 309.5 68.3636C306.5 68.3636 303.879 69.1818 301.636 70.8182C299.424 72.4242 297.697 74.7727 296.455 77.8636C295.212 80.9545 294.591 84.697 294.591 89.0909C294.591 93.5455 295.197 97.3333 296.409 100.455C297.652 103.576 299.394 105.955 301.636 107.591C303.879 109.227 306.5 110.045 309.5 110.045C311.712 110.045 313.697 109.591 315.455 108.682C317.242 107.773 318.712 106.455 319.864 104.727C321.045 102.97 321.818 100.864 322.182 98.4091H340.455C340.152 103.742 338.697 108.439 336.091 112.5C333.515 116.53 329.955 119.682 325.409 121.955C320.864 124.227 315.485 125.364 309.273 125.364ZM352.852 124V54.1818H371.307V66.5H372.125C373.58 62.4091 376.004 59.1818 379.398 56.8182C382.792 54.4545 386.852 53.2727 391.58 53.2727C396.367 53.2727 400.443 54.4697 403.807 56.8636C407.17 59.2273 409.413 62.4394 410.534 66.5H411.261C412.686 62.5 415.261 59.303 418.989 56.9091C422.746 54.4848 427.186 53.2727 432.307 53.2727C438.822 53.2727 444.11 55.3485 448.17 59.5C452.261 63.6212 454.307 69.4697 454.307 77.0455V124H434.989V80.8636C434.989 76.9848 433.958 74.0758 431.898 72.1364C429.837 70.197 427.261 69.2273 424.17 69.2273C420.655 69.2273 417.913 70.3485 415.943 72.5909C413.973 74.803 412.989 77.7273 412.989 81.3636V124H394.216V80.4545C394.216 77.0303 393.231 74.303 391.261 72.2727C389.322 70.2424 386.761 69.2273 383.58 69.2273C381.428 69.2273 379.489 69.7727 377.761 70.8636C376.064 71.9242 374.716 73.4242 373.716 75.3636C372.716 77.2727 372.216 79.5152 372.216 82.0909V124H352.852ZM527.693 74.0909L509.966 75.1818C509.663 73.6667 509.011 72.303 508.011 71.0909C507.011 69.8485 505.693 68.8636 504.057 68.1364C502.451 67.3788 500.527 67 498.284 67C495.284 67 492.754 67.6364 490.693 68.9091C488.633 70.1515 487.602 71.8182 487.602 73.9091C487.602 75.5758 488.269 76.9848 489.602 78.1364C490.936 79.2879 493.223 80.2121 496.466 80.9091L509.102 83.4545C515.89 84.8485 520.951 87.0909 524.284 90.1818C527.617 93.2727 529.284 97.3333 529.284 102.364C529.284 106.939 527.936 110.955 525.239 114.409C522.572 117.864 518.905 120.561 514.239 122.5C509.602 124.409 504.254 125.364 498.193 125.364C488.951 125.364 481.587 123.439 476.102 119.591C470.648 115.712 467.451 110.439 466.511 103.773L485.557 102.773C486.133 105.591 487.527 107.742 489.739 109.227C491.951 110.682 494.784 111.409 498.239 111.409C501.633 111.409 504.36 110.758 506.42 109.455C508.511 108.121 509.572 106.409 509.602 104.318C509.572 102.561 508.83 101.121 507.375 100C505.92 98.8485 503.678 97.9697 500.648 97.3636L488.557 94.9545C481.739 93.5909 476.663 91.2273 473.33 87.8636C470.027 84.5 468.375 80.2121 468.375 75C468.375 70.5151 469.587 66.6515 472.011 63.4091C474.466 60.1667 477.905 57.6667 482.33 55.9091C486.784 54.1515 491.996 53.2727 497.966 53.2727C506.784 53.2727 513.723 55.1364 518.784 58.8636C523.875 62.5909 526.845 67.6667 527.693 74.0909Z" fill="#E68739"/>
</svg>
